<svg xmlns="http://www.w3.org/2000/svg" viewBox="0 0 75 75"><defs><style>.cls-1{fill:#fff;}</style></defs><g id="Layer_2" data-name="Layer 2"><g id="Behase"><path class="cls-1" d="M31.2,34.7a2.33,2.33,0,0,0,1-2.19,2.24,2.24,0,0,0-1.36-2.31,9.64,9.64,0,0,0-3-.39H22.36v5.51h6.16A5.09,5.09,0,0,0,31.2,34.7Z"/><path class="cls-1" d="M49,35.48a3.93,3.93,0,0,0-2.92,1.05,5.05,5.05,0,0,0-1.31,2.86h8.45a4,4,0,0,0-1.31-2.92A4.35,4.35,0,0,0,49,35.48Z"/><path class="cls-1" d="M31.13,39.88a6.5,6.5,0,0,0-2.53-.42H22.36v6.67h6.15a6.12,6.12,0,0,0,2.57-.44,3.15,3.15,0,0,0,1.66-3.12A2.68,2.68,0,0,0,31.13,39.88Z"/><path class="cls-1" d="M37.5,0A37.5,37.5,0,1,0,75,37.5,37.5,37.5,0,0,0,37.5,0Zm6,26.63H54.36v3.12H43.51ZM37,46.91a7,7,0,0,1-1.79,2,7.09,7.09,0,0,1-2.86,1.26,18.39,18.39,0,0,1-3.58.33H17.31v-25H29.55q4.64.06,6.57,2.66A6.36,6.36,0,0,1,37.28,32a5.54,5.54,0,0,1-1.17,3.68,6.08,6.08,0,0,1-1.93,1.42,5.73,5.73,0,0,1,2.93,2.21,6.58,6.58,0,0,1,1,3.66A7.2,7.2,0,0,1,37,46.91ZM58.3,42.58H44.65a4.42,4.42,0,0,0,2,3.9,5.08,5.08,0,0,0,2.71.7A4.18,4.18,0,0,0,52,46.33a4,4,0,0,0,1-1.27h5a6.08,6.08,0,0,1-1.82,3.34,9.2,9.2,0,0,1-7,2.69,10.29,10.29,0,0,1-6.6-2.27c-1.91-1.52-2.86-4-2.86-7.4q0-4.8,2.58-7.37A9.16,9.16,0,0,1,49,31.49a10.78,10.78,0,0,1,4.41.87,7.52,7.52,0,0,1,3.23,2.73,8.89,8.89,0,0,1,1.5,3.82A24.19,24.19,0,0,1,58.3,42.58Z"/></g></g></svg>