<svg xmlns="http://www.w3.org/2000/svg" viewBox="0 0 75 75"><g id="Layer_2" data-name="Layer 2"><g id="Dribble"><path d="M37.87,37.4l.57-.18c-.37-.82-.76-1.65-1.18-2.47a52.94,52.94,0,0,1-14.91,2.07c0,.15,0,.31,0,.46A14.46,14.46,0,0,0,26.06,47h0S30,39.93,37.87,37.4Z"/><path d="M33.38,23.19h0Z"/><path d="M46.45,26.39a14.48,14.48,0,0,0-9.59-3.63,14.82,14.82,0,0,0-3.42.41,74.77,74.77,0,0,1,5.43,8.47C44.35,29.59,46.41,26.44,46.45,26.39Z"/><path d="M39.33,39.66c-8.59,3-11.38,9-11.39,9.06a14.49,14.49,0,0,0,14.59,1.93,60.84,60.84,0,0,0-3.1-11Z"/><path d="M36.06,32.52a87.44,87.44,0,0,0-5.39-8.37,14.55,14.55,0,0,0-8,10.14A53.55,53.55,0,0,0,36.06,32.52Z"/><path d="M37.5,0A37.5,37.5,0,1,0,75,37.5,37.5,37.5,0,0,0,37.5,0Zm16,40.71a17.1,17.1,0,0,1-1,3.19A16.79,16.79,0,0,1,51,46.79a17.47,17.47,0,0,1-4.59,4.59,16.79,16.79,0,0,1-2.89,1.56,17,17,0,0,1-10,1,16.45,16.45,0,0,1-3.2-1,17.16,17.16,0,0,1-2.89-1.56,17.77,17.77,0,0,1-2.51-2.08,16.54,16.54,0,0,1-2.07-2.51A16.18,16.18,0,0,1,21.2,43.9a16.36,16.36,0,0,1-1-3.19,16.93,16.93,0,0,1,0-6.85,16.45,16.45,0,0,1,1-3.2,16.09,16.09,0,0,1,1.57-2.88,16.62,16.62,0,0,1,2.07-2.52,17.7,17.7,0,0,1,2.51-2.07,16.82,16.82,0,0,1,6.09-2.56,17,17,0,0,1,10,1,16.83,16.83,0,0,1,2.89,1.57A17.08,17.08,0,0,1,51,27.78a16.7,16.7,0,0,1,1.56,2.88,17.2,17.2,0,0,1,1,3.2,17.42,17.42,0,0,1,0,6.85Z"/><path d="M42.15,39A63.84,63.84,0,0,1,45,49.32a14.57,14.57,0,0,0,6.22-9.73A21,21,0,0,0,42.15,39Z"/><path d="M40,33.81c.33.69.66,1.39,1,2.1.11.25.21.5.31.75a33.34,33.34,0,0,1,10.12.48,14.47,14.47,0,0,0-3.31-9.08S45.72,31.47,40,33.81Z"/></g></g></svg>