<svg xmlns="http://www.w3.org/2000/svg" viewBox="0 0 75 75"><defs><style>.cls-1{fill:#fff;}</style></defs><g id="Layer_2" data-name="Layer 2"><g id="Insta"><g id="Layer_16" data-name="Layer 16"><path class="cls-1" d="M36.91,28.55a8.73,8.73,0,1,0,8.55,8.73A8.64,8.64,0,0,0,36.91,28.55Zm0,14.37a5.64,5.64,0,1,1,5.52-5.64A5.58,5.58,0,0,1,36.91,42.92Z"/><path class="cls-1" d="M45.92,26.11a2,2,0,1,0,1.93,2A2,2,0,0,0,45.92,26.11Z"/></g><path class="cls-1" d="M37.5,0A37.5,37.5,0,1,0,75,37.5,37.5,37.5,0,0,0,37.5,0ZM53.91,45.13a9.08,9.08,0,0,1-9,9.15H28.88a9.09,9.09,0,0,1-9-9.15V29.43a9.09,9.09,0,0,1,9-9.15H45a9.08,9.08,0,0,1,9,9.15Z"/></g></g></svg>