<svg xmlns="http://www.w3.org/2000/svg" viewBox="0 0 75 75"><defs><style>.cls-1{fill:#fff;}</style></defs><g id="Layer_2" data-name="Layer 2"><g id="Linkedin"><path class="cls-1" d="M37.5,0A37.5,37.5,0,1,0,75,37.5,37.5,37.5,0,0,0,37.5,0ZM28.9,52.69H21.49V29.2H28.9ZM25,26.26H25a4.1,4.1,0,0,1-4.42-4.07c0-2.32,1.79-4.08,4.53-4.08a4.12,4.12,0,0,1,4.47,4.07C29.53,24.46,27.79,26.26,25,26.26ZM58.56,52.69h-8.4V40.53c0-3.18-1.32-5.35-4.21-5.35a4.23,4.23,0,0,0-4,2.88A5.21,5.21,0,0,0,41.76,40V52.69H33.43s.1-21.53,0-23.49h8.33v3.69c.49-1.62,3.15-3.92,7.4-3.92,5.26,0,9.4,3.38,9.4,10.66Z"/></g></g></svg>