<svg xmlns="http://www.w3.org/2000/svg" viewBox="0 0 75 75"><defs><style>.cls-1{fill:#fff;}</style></defs><g id="Layer_2" data-name="Layer 2"><g id="TW"><path class="cls-1" d="M37.5,0A37.5,37.5,0,1,0,75,37.5,37.5,37.5,0,0,0,37.5,0ZM52.6,31.61c0,.33,0,.67,0,1,0,10.2-7.56,22-21.4,22A21,21,0,0,1,19.69,51.1a15,15,0,0,0,11.13-3.2,7.55,7.55,0,0,1-7-5.36,7.34,7.34,0,0,0,3.4-.13,7.66,7.66,0,0,1-6-7.56v-.1a7.21,7.21,0,0,0,3.41,1,7.75,7.75,0,0,1-3.35-6.42,7.85,7.85,0,0,1,1-3.88,21.17,21.17,0,0,0,15.51,8.06,7.76,7.76,0,0,1-.2-1.75A7.63,7.63,0,0,1,45.07,24a7.41,7.41,0,0,1,5.49,2.44,15,15,0,0,0,4.78-1.87A7.64,7.64,0,0,1,52,28.83a14.59,14.59,0,0,0,4.32-1.21A15.17,15.17,0,0,1,52.6,31.61Z"/></g></g></svg>