<svg xmlns="http://www.w3.org/2000/svg" viewBox="0 0 98.04 98.04"><defs><style>.cls-1{fill:#fff;}</style></defs><g id="Layer_2" data-name="Layer 2"><g id="AE"><path class="cls-1" d="M38.87,45.24c-.35-1.09-.67-2.14-1-3.23s-.67-2.1-1-3.12-.53-1.9-.77-2.74h-.07a42.1,42.1,0,0,1-1.2,4.53c-.52,1.68-1,3.44-1.61,5.19s-1,3.44-1.54,4.92h8.91c-.21-.74-.49-1.62-.81-2.53S39.18,46.29,38.87,45.24Z"/><path class="cls-1" d="M69,44.22a5,5,0,0,0-4.66,2.67,7.22,7.22,0,0,0-.78,2.53H71c.91,0,1.58,0,2,0a1.64,1.64,0,0,0,.81-.28v-.35a4.07,4.07,0,0,0-.21-1.3A4.66,4.66,0,0,0,69,44.22Z"/><path class="cls-1" d="M49,0A49,49,0,1,0,98,49,49,49,0,0,0,49,0ZM53.5,66.58H46.17a.52.52,0,0,1-.56-.38l-2.88-8.43H29.67L27,66.06a.62.62,0,0,1-.66.49h-6.6c-.39,0-.5-.21-.39-.63l11.3-32.4c.11-.35.21-.67.35-1.09a12.32,12.32,0,0,0,.21-2.28.36.36,0,0,1,.29-.39h9.09c.24,0,.42.11.45.28L53.85,66C54,66.41,53.85,66.58,53.5,66.58Zm27.56-14c-.07.66-.11,1.16-.14,1.47a.53.53,0,0,1-.49.46c-.21,0-.6,0-1.16.07a16.8,16.8,0,0,1-2,.1c-.8,0-1.65-.14-2.56-.14H63.54a7.71,7.71,0,0,0,1.09,3.13,5.53,5.53,0,0,0,2.56,2.1,10.82,10.82,0,0,0,4.5.88,21.22,21.22,0,0,0,3.65-.38,13.88,13.88,0,0,0,3.12-.81c.18-.14.28-.07.28.28v5.37a1.54,1.54,0,0,1-.07.42.82.82,0,0,1-.24.25,15.27,15.27,0,0,1-3.51,1,23.15,23.15,0,0,1-5,.42A16.6,16.6,0,0,1,63.19,66a11.79,11.79,0,0,1-4.42-3.33,13,13,0,0,1-2.42-4.6A18,18,0,0,1,55.61,53a17.78,17.78,0,0,1,.88-5.58,14.41,14.41,0,0,1,2.63-4.81,12.82,12.82,0,0,1,4.25-3.33,13.2,13.2,0,0,1,5.86-1.09,12.79,12.79,0,0,1,5.44,1.09,9.7,9.7,0,0,1,3.69,2.81,12.65,12.65,0,0,1,2.1,4,13.67,13.67,0,0,1,.67,4.28C81.13,51.17,81.09,51.91,81.06,52.58Z"/></g></g></svg>