<svg xmlns="http://www.w3.org/2000/svg" viewBox="0 0 98.04 98.04"><defs><style>.cls-1{fill:#fff;}</style></defs><g id="Layer_2" data-name="Layer 2"><g id="AI"><path class="cls-1" d="M43.28,45.15c-.35-1.07-.66-2.11-1-3.19s-.66-2.08-.93-3.08-.52-1.87-.77-2.71H40.5a43.3,43.3,0,0,1-1.17,4.47c-.52,1.67-1,3.4-1.6,5.13s-1,3.4-1.52,4.86H45c-.21-.73-.49-1.6-.8-2.5S43.59,46.19,43.28,45.15Z"/><path class="cls-1" d="M49,0A49,49,0,1,0,98,49,49,49,0,0,0,49,0Zm8.71,66.29H50.49a.52.52,0,0,1-.56-.38l-2.84-8.25H34.2l-2.64,8.15a.6.6,0,0,1-.66.48H24.39c-.38,0-.49-.2-.38-.62L35.17,33.54c.1-.35.2-.73.34-1.14a12,12,0,0,0,.21-2.26.35.35,0,0,1,.28-.38h9c.27,0,.41.11.45.28l12.65,35.7C58.18,66.12,58.08,66.29,57.73,66.29Zm11.78-.52c0,.38-.13.56-.45.56H62.27c-.35,0-.52-.21-.52-.56V39.09c0-.35.14-.49.45-.49h6.86c.32,0,.45.17.45.49Zm-.72-31.29a4.09,4.09,0,0,1-3.16,1.21,4.33,4.33,0,0,1-3.08-1.21,4.47,4.47,0,0,1-1.18-3.19,4.08,4.08,0,0,1,1.25-3.09A4.42,4.42,0,0,1,65.7,27a4.17,4.17,0,0,1,3.16,1.21,4.78,4.78,0,0,1-.07,6.28Z"/></g></g></svg>