<svg xmlns="http://www.w3.org/2000/svg" viewBox="0 0 98.04 98.04"><defs><style>.cls-1{fill:#fff;}</style></defs><g id="Layer_2" data-name="Layer 2"><g id="BLENDER"><path class="cls-1" d="M68.49,46.89a12.48,12.48,0,0,0-3-3.62,14.48,14.48,0,0,0-18,0,12.48,12.48,0,0,0-3,3.62,11.44,11.44,0,0,0-1.37,4.52,11,11,0,0,0,.63,4.79,11.84,11.84,0,0,0,2.74,4.29,14.37,14.37,0,0,0,20.07,0,11.83,11.83,0,0,0,2.74-4.3,11.14,11.14,0,0,0,.64-4.79A11.36,11.36,0,0,0,68.49,46.89ZM63,57.3a9.19,9.19,0,0,1-12.56,0,7.35,7.35,0,0,1-2.29-5.7,7.51,7.51,0,0,1,2.72-5.3,9.23,9.23,0,0,1,11.7,0,7.51,7.51,0,0,1,2.72,5.3A7.38,7.38,0,0,1,63,57.3Z"/><path class="cls-1" d="M49,0A49,49,0,1,0,98,49,49,49,0,0,0,49,0ZM78.5,55.43a18.63,18.63,0,0,1-.79,4.08,19.83,19.83,0,0,1-4.21,7.31,21.93,21.93,0,0,1-7.37,5.31,24,24,0,0,1-19.35,0,21.74,21.74,0,0,1-7.37-5.29,19.4,19.4,0,0,1-4.21-7.29,15.86,15.86,0,0,1-.68-3.69,20.24,20.24,0,0,1,.17-2.2L22.25,63.87c-2.18,1.75-5.1,1.75-6.47,0s-.66-4.47,1.49-6.12a.27.27,0,0,0,.08-.07l22.8-17.49-12.77,0h0c-2.16,0-3.58-1.47-3.17-3.23s2.4-3.09,4.48-3.09h0l25.21,0-8.27-6.73h0A2.23,2.23,0,0,1,46,23.37a4.43,4.43,0,0,1,4.92,0l.05,0L70.79,38.63h0a20.6,20.6,0,0,1,4.9,5.4,18.74,18.74,0,0,1,2.82,11.4Z"/></g></g></svg>