<svg xmlns="http://www.w3.org/2000/svg" viewBox="0 0 98.04 98.04"><defs><style>.cls-1{fill:#fff;}</style></defs><g id="Layer_2" data-name="Layer 2"><g id="JAVA"><path class="cls-1" d="M49,0A49,49,0,1,0,98,49,49,49,0,0,0,49,0ZM71.89,46.34a4.8,4.8,0,0,1,1.51,4.85c-.47,2-2.53,5.55-11,7.77l-1.49.4,1.15-1a.72.72,0,0,0,.15-.19l.06-.12.12-.08c5.62-2.92,8.39-6.32,7.4-9.09a4,4,0,0,0-4.39-2.42,10,10,0,0,0-1.4.37l-1.09.44.63-1a2.79,2.79,0,0,1,1.29-1A7,7,0,0,1,71.89,46.34Zm-31,16.37A39,39,0,0,0,55,62.11l.15,0,.12.08A24.72,24.72,0,0,0,58.93,64l.86.33-.85.36a31.4,31.4,0,0,1-12.22,2.4c-4.92,0-9-1.09-10.54-2.35a1.71,1.71,0,0,1-.8-1.71c.19-.94,1.38-1.71,3.53-2.31l2.78-.78L39.2,61.37c-.28.17-.6.48-.57.62S38.75,62.46,40.91,62.71Zm4.38-3.24c-.91,0-1.82,0-2.71-.07-4.08-.24-8.64-1.13-9.2-2.94-.37-1.18.93-2.28,3.88-3.26l2.2-.73L37.6,53.86c-.3.22-.88.8-.78,1.17,0,.14.3.6,2.14.79A55.33,55.33,0,0,0,57.12,55l.2,0,.14.14a7.81,7.81,0,0,0,2.67,1.63l1.1.38-1.12.33A54.24,54.24,0,0,1,45.29,59.47ZM39.73,29.68c1.59-2.39,4.15-4.39,6.62-6.33,4.9-3.83,10-7.8,8.12-15.1l-.34-1.32,1,1A7.92,7.92,0,0,1,57,13.73c-.24,4.11-3.16,8.4-8.69,12.76C40,33.05,42.94,37.22,46,41.63a24.25,24.25,0,0,1,2.39,3.89l.71,1.61L47.83,46C41.6,40.33,36.29,34.85,39.73,29.68ZM29.34,48a23.58,23.58,0,0,1,11-2.58l2.47.16-2.4.58c-3.56.84-6.75,2.06-6.82,2.61,0,0,.17.38,2.38.67a75.07,75.07,0,0,0,12,.12l2.16-1.79a5.91,5.91,0,0,0,2-3.55,4.18,4.18,0,0,0-1.17-3.13h0c-2.74-3.16-3.68-6.2-2.79-9,2.21-7,14.69-10.18,15.22-10.31l2.57-.64-2.29,1.33C56.41,26.61,53,29.57,52.44,32c-.38,1.82.77,3.42,2.24,5.46l.46.64a5.09,5.09,0,0,1,.94,4.26c-.87,3.54-5.41,5.93-5.61,6l-2.22,1.14c1.33-.07,2.68-.16,4-.27,5.06-.43,10.22-1.35,10.27-1.36l3.23-.57-3,1.29a22.71,22.71,0,0,0-3.06,1.63l-.11.06a77.07,77.07,0,0,1-17.71,1.83c-7.18,0-13.37-.81-13.94-2.36C27.71,49.17,28.18,48.57,29.34,48ZM22.42,70.25c-.15-.7.34-1.44,1.46-2.18,2.5-1.65,8.24-3.27,10.06-2l1.09.77-1.33-.09a9.1,9.1,0,0,0-2.25.26c-1.7.36-3.94,1.29-4,1.78,0,0,.08.18.48.35,6.92,3,31.3,2.13,38.7-.11,1.87-.57,2.25-1.15,2.31-1.45s-.31-.72-.31-.73l-2.17-1.78L69,66.24c1.53.69,1.65,1.49,1.48,2-.84,2.81-11.67,5.35-25.69,5.35a117.37,117.37,0,0,1-18.68-1.49C23.83,71.77,22.61,71.15,22.42,70.25Zm51.16-.16c-.4,5.16-13.6,6.83-25,6.83-2.48,0-4.88-.08-7-.21-8.12-.53-9.81-1.85-9.88-1.91l-1.07-.89,1.37.23a100.09,100.09,0,0,0,31-.48c8.81-1.66,9.89-3.72,9.9-3.74l.87-1.81Z"/></g></g></svg>