<svg xmlns="http://www.w3.org/2000/svg" viewBox="0 0 98.04 98.04"><defs><style>.cls-1{fill:#fff;}</style></defs><g id="Layer_2" data-name="Layer 2"><g id="JS"><path class="cls-1" d="M49.57,27.6c-.23,8.23,0,16.46-.1,24.69.06,7.53-.11,15.06.09,22.58C55,73.6,60.31,72,65.66,70.48,67,56.2,68.31,41.91,69.43,27.61,62.81,27.54,56.19,27.62,49.57,27.6ZM67,34q-.23,2.91-.56,5.81H56.16c0,2.9,0,5.79,0,8.68,3.28-.22,6.52-.77,9.79-1-.46,5.1-.76,10.22-1.24,15.31,0,.78-.9.75-1.4,1-3.95,1-7.87,2.12-11.84,3,0-1.91,0-3.81,0-5.71,3.16-.78,6.3-1.64,9.44-2.48.07-1.65.14-3.3.19-5-3.23.59-6.45,1.19-9.69,1.71q0-10.63,0-21.26C56.63,33.9,61.84,34,67,34Z"/><path class="cls-1" d="M42.68,59.74c-3.18-.87-6.32-1.87-9.54-2.56a34.27,34.27,0,0,0,.16,5.73c4.72,1.15,9.34,2.66,14.06,3.79,0-10.9,0-21.8,0-32.7l-4.62-.09C42.59,42.51,42.75,51.13,42.68,59.74Z"/><path class="cls-1" d="M49,0A49,49,0,1,0,98,49,49,49,0,0,0,49,0ZM69.56,73.29Q59.9,76,50.23,78.75a3.79,3.79,0,0,1-2.46-.19c-6.13-1.76-12.25-3.51-18.38-5.2q-2.4-25-4.45-50.11c5.48-.23,11,.06,16.47,0,6.05-.19,12.1,0,18.17,0,4.81,0,9.61,0,14.42,0C72.49,39.91,71,56.6,69.56,73.29Z"/></g></g></svg>