<svg xmlns="http://www.w3.org/2000/svg" viewBox="0 0 98.04 98.04"><defs><style>.cls-1{fill:#fff;}</style></defs><g id="Layer_2" data-name="Layer 2"><g id="PR"><path class="cls-1" d="M43.76,37.25a10.37,10.37,0,0,0-4.08-.69c-.9,0-1.69,0-2.35,0a7.88,7.88,0,0,0-1.41,0v11.6c.48,0,.93.07,1.34.07h1.83a13,13,0,0,0,4-.62,6,6,0,0,0,2.84-1.83A5.37,5.37,0,0,0,47,42.29a5.74,5.74,0,0,0-.8-3.07A5,5,0,0,0,43.76,37.25Z"/><path class="cls-1" d="M49,0A49,49,0,1,0,98,49,49,49,0,0,0,49,0Zm3.4,49.44a11.83,11.83,0,0,1-5.56,4.21,22.2,22.2,0,0,1-7.77,1.18c-.82,0-1.38,0-1.72,0s-.83,0-1.49,0V65.84a.42.42,0,0,1-.38.48H28.81c-.28,0-.42-.13-.42-.45V30.35c0-.24.11-.38.35-.38.58,0,1.14,0,1.93,0s1.69,0,2.62-.06,1.94,0,3-.07,2.1,0,3.14,0a20.4,20.4,0,0,1,7.11,1.07,12.43,12.43,0,0,1,4.63,2.83A11,11,0,0,1,53.7,37.6a13.14,13.14,0,0,1,.79,4.49A12.33,12.33,0,0,1,52.42,49.44ZM76,38.57V45.3c0,.27-.18.38-.56.38a15,15,0,0,0-3.72.34,14.43,14.43,0,0,0-2.9.93A5.46,5.46,0,0,0,67,48.23V65.84c0,.35-.14.48-.45.48H59.77a.47.47,0,0,1-.55-.41V46.64c0-.82,0-1.69,0-2.59s0-1.79-.07-2.69S59.05,39.81,59,39a.33.33,0,0,1,.24-.38s.07,0,.11,0h6a.78.78,0,0,1,.72.56,3,3,0,0,1,.21.86,9.91,9.91,0,0,1,.17,1.07,11.71,11.71,0,0,1,.07,1.24,12.85,12.85,0,0,1,3.7-3,10.72,10.72,0,0,1,5.24-1.34.43.43,0,0,1,.49.38Z"/></g></g></svg>