<svg xmlns="http://www.w3.org/2000/svg" viewBox="0 0 98.04 98.04"><defs><style>.cls-1{fill:#fff;}</style></defs><g id="Layer_2" data-name="Layer 2"><g id="PS"><path class="cls-1" d="M40.68,37.24a9.91,9.91,0,0,0-4-.68c-.87,0-1.65,0-2.29,0a7.55,7.55,0,0,0-1.38,0V48c.47,0,.91.06,1.31.06h1.79a12.78,12.78,0,0,0,3.88-.6,5.9,5.9,0,0,0,2.76-1.79,5.19,5.19,0,0,0,1-3.47,5.57,5.57,0,0,0-.78-3A4.84,4.84,0,0,0,40.68,37.24Z"/><path class="cls-1" d="M49,0A49,49,0,1,0,98,49,49,49,0,0,0,49,0Zm.12,49.14a11.57,11.57,0,0,1-5.43,4.11,21.89,21.89,0,0,1-7.58,1.14c-.81,0-1.35,0-1.69,0s-.81,0-1.45,0V65.15a.41.41,0,0,1-.37.47H26.08c-.27,0-.4-.14-.4-.44V30.49c0-.23.1-.37.34-.37.57,0,1.11,0,1.88,0s1.66,0,2.57-.07,1.88,0,2.93-.07,2.06,0,3.07,0a19.76,19.76,0,0,1,6.94,1,11.92,11.92,0,0,1,4.52,2.76,10.72,10.72,0,0,1,2.46,3.84A13.09,13.09,0,0,1,51.16,42,12.06,12.06,0,0,1,49.14,49.14ZM73,62.25a8.46,8.46,0,0,1-3.77,3,15.45,15.45,0,0,1-6.1,1.08,23.49,23.49,0,0,1-4.59-.44,13.36,13.36,0,0,1-3.44-1.08.67.67,0,0,1-.37-.64V58.3a.35.35,0,0,1,.14-.3c.1-.07.2,0,.3,0a14.38,14.38,0,0,0,4.18,1.66,16,16,0,0,0,4,.5,6.51,6.51,0,0,0,2.8-.47,1.59,1.59,0,0,0,.91-1.42A1.76,1.76,0,0,0,66.27,57,14.29,14.29,0,0,0,63,55.37a19.93,19.93,0,0,1-4.78-2.43,8.62,8.62,0,0,1-2.57-2.86,7.16,7.16,0,0,1-.77-3.44A8,8,0,0,1,56,42.56a8.31,8.31,0,0,1,3.54-3.1,13.1,13.1,0,0,1,6-1.18,29.38,29.38,0,0,1,4.18.3,12.16,12.16,0,0,1,2.9.78.59.59,0,0,1,.34.3,1.93,1.93,0,0,1,.06.41v5.49a.41.41,0,0,1-.16.34.87.87,0,0,1-.61,0A12,12,0,0,0,69,44.75a17.65,17.65,0,0,0-3.77-.44,6.82,6.82,0,0,0-2,.24,1.77,1.77,0,0,0-1.05.67,1.79,1.79,0,0,0-.27.92,1.51,1.51,0,0,0,.34.87,3.76,3.76,0,0,0,1.14.91c.78.41,1.59.78,2.4,1.11a24.23,24.23,0,0,1,5.19,2.47,7.81,7.81,0,0,1,2.66,2.79,7.33,7.33,0,0,1,.78,3.48A7.86,7.86,0,0,1,73,62.25Z"/></g></g></svg>