<svg xmlns="http://www.w3.org/2000/svg" viewBox="0 0 98.04 98.04"><defs><style>.cls-1{fill:#fff;}</style></defs><g id="Layer_2" data-name="Layer 2"><g id="React"><path class="cls-1" d="M42.24,59.71c2.19.14,4.47.22,6.81.22s4.66-.09,6.9-.25c1.26-1.9,2.47-3.84,3.61-5.82h0q1.72-3,3.23-6.09c-1-2.05-2.1-4.06-3.24-6s-2.35-3.9-3.63-5.79c-2.24-.17-4.54-.26-6.87-.26s-4.61.09-6.85.26c-1.29,1.89-2.51,3.82-3.65,5.81h0q-1.71,3-3.2,6.06c1,2.06,2.07,4.09,3.21,6.07S40.94,57.81,42.24,59.71ZM49.05,41a6.73,6.73,0,1,1-6.72,6.73A6.72,6.72,0,0,1,49.05,41Z"/><path class="cls-1" d="M64.52,51.48q-1,2-2.18,4C61.6,56.76,60.83,58,60,59.29a65.71,65.71,0,0,0,7-1.19A66.07,66.07,0,0,0,64.52,51.48Z"/><path class="cls-1" d="M60,36.35q1.18,1.86,2.29,3.77T64.49,44a65.91,65.91,0,0,0,2.41-6.48C64.74,37.06,62.44,36.66,60,36.35Z"/><path class="cls-1" d="M38.07,36.35c-2.38.3-4.67.69-6.82,1.17.66,2.11,1.46,4.29,2.39,6.51q1-2,2.13-3.89C36.51,38.86,37.28,37.59,38.07,36.35Z"/><path class="cls-1" d="M67.77,34.45c.12-.49.23-1,.34-1.49,1.58-7.69.6-13.55-1.92-15s-7.56.54-13.12,5.38c-.59.51-1.16,1-1.73,1.58a75.36,75.36,0,0,1,6.36,7.94A78.33,78.33,0,0,1,67.77,34.45Z"/><path class="cls-1" d="M38.14,59.35c-.82-1.27-1.6-2.56-2.36-3.86s-1.45-2.58-2.13-3.9a69.61,69.61,0,0,0-2.44,6.65A68.9,68.9,0,0,0,38.14,59.35Z"/><path class="cls-1" d="M53.52,32.57a69.24,69.24,0,0,0-4.43-5.35c-1.51,1.63-3,3.42-4.47,5.35Q49.08,32.36,53.52,32.57Z"/><path class="cls-1" d="M30.34,61.34c-.21.83-.39,1.66-.55,2.5-1.35,7.09-.36,12.37,2,13.74,1.12.64,3,.62,5.28-.2h0a27.24,27.24,0,0,0,8.43-5.27c.49-.43,1-.87,1.43-1.32a77.78,77.78,0,0,1-6.46-8A76.41,76.41,0,0,1,30.34,61.34Z"/><path class="cls-1" d="M29.87,32.1c.15.78.32,1.55.51,2.32a78.4,78.4,0,0,1,10.05-1.56,75.47,75.47,0,0,1,6.41-7.93c-.38-.37-.76-.71-1.13-1.05-5.87-5.21-11.44-7.29-14-5.83-2.36,1.37-3.3,6.82-1.88,14.05Z"/><path class="cls-1" d="M72.26,39.06c-.72-.25-1.47-.48-2.24-.7a76.27,76.27,0,0,1-3.66,9.39,75.11,75.11,0,0,1,3.81,9.54l1.26-.4h0c7.45-2.47,12-6.25,12-9.15C83.47,45,79.22,41.46,72.26,39.06Z"/><path class="cls-1" d="M49,0A49,49,0,1,0,98,49,49,49,0,0,0,49,0ZM72.44,59.94c-.45.15-.92.3-1.4.44q.25,1,.45,2c1.71,8.6.4,15.68-3.64,18s-10.23,0-16.62-5.46q-1-.9-2-1.86c-.52.51-1,1-1.57,1.45C41,80.3,34.24,82.7,30.2,80.37s-5.14-8.84-3.57-17.13c.17-.9.37-1.8.59-2.69-.68-.19-1.36-.41-2-.64-8.3-2.83-13.77-7.51-13.77-12.17s5.09-8.87,13.06-11.65c.89-.31,1.82-.6,2.79-.88-.21-.82-.4-1.66-.56-2.49-1.65-8.44-.49-15.18,3.43-17.45,4.09-2.37,10.91.17,17.7,6.21.42.37.84.76,1.25,1.15.61-.59,1.23-1.16,1.87-1.72,6.49-5.64,12.91-8,16.83-5.74,4.1,2.36,5.3,9.53,3.46,18.44-.11.55-.23,1.1-.37,1.65.81.23,1.62.49,2.42.76,8.13,2.8,13.38,7.18,13.38,11.72C86.68,52.46,81.07,57.08,72.44,59.94Z"/><path class="cls-1" d="M67.93,61.19a76,76,0,0,1-10.19,1.58,76.34,76.34,0,0,1-6.31,8c.64.61,1.27,1.18,1.89,1.72,5.47,4.71,10.55,6.49,12.92,5.12,1.11-.65,2-2.26,2.46-4.67A27.3,27.3,0,0,0,68.34,63C68.22,62.42,68.09,61.81,67.93,61.19Z"/><path class="cls-1" d="M28.13,38.31c-.87.24-1.74.52-2.59.81-6.82,2.38-10.9,5.87-10.9,8.62,0,1.28.94,2.87,2.81,4.47a27.16,27.16,0,0,0,8.78,4.66c.61.21,1.23.4,1.85.58a78.41,78.41,0,0,1,3.72-9.64A77.17,77.17,0,0,1,28.13,38.31Z"/><path class="cls-1" d="M49.05,63.14c-1.49,0-3,0-4.4-.08,1.49,2,3,3.77,4.53,5.41A69.93,69.93,0,0,0,53.6,63C52.1,63.11,50.59,63.14,49.05,63.14Z"/></g></g></svg>