<svg xmlns="http://www.w3.org/2000/svg" viewBox="0 0 98.04 98.04"><defs><style>.cls-1{fill:#fff;}</style></defs><g id="Layer_2" data-name="Layer 2"><g id="XD"><path class="cls-1" d="M67.38,46.86a8.37,8.37,0,0,0-3.8.87,7.56,7.56,0,0,0-2.85,2.48,7.46,7.46,0,0,0-1.11,4.27,9.44,9.44,0,0,0,.57,3.45,6.7,6.7,0,0,0,1.51,2.39A5.85,5.85,0,0,0,64,61.66a8.77,8.77,0,0,0,2.78.43c.51,0,1,0,1.41-.06a3.06,3.06,0,0,0,1.21-.17V47.09c-.3-.06-.6-.13-.91-.17S67.75,46.86,67.38,46.86Z"/><path class="cls-1" d="M49,0A49,49,0,1,0,98,49,49,49,0,0,0,49,0Zm2.31,67.8c0,.13-.16,0-.37.07H43.28c-.54,0-.91,0-1.14-.37-.71-1.41-1.45-2.79-2.15-4.2s-1.48-2.78-2.28-4.23-1.61-2.88-2.42-4.36h-.07C34.52,56.15,33.75,57.6,33,59s-1.55,2.89-2.29,4.3-1.54,2.85-2.31,4.23c-.14.33-.41.36-.77.36H20.22c-.13,0-.23.07-.23-.1a.48.48,0,0,1,.06-.37L30.49,50.35,20.32,33.13c-.1-.13-.13-.27-.06-.34a.37.37,0,0,1,.33-.13h7.62a1.66,1.66,0,0,1,.47.07A1.05,1.05,0,0,1,29,33c.63,1.44,1.37,2.89,2.14,4.33s1.58,2.85,2.42,4.26,1.54,2.82,2.25,4.26h.07c.7-1.47,1.44-2.92,2.18-4.33s1.51-2.81,2.28-4.22,1.51-2.86,2.25-4.23a.56.56,0,0,1,.2-.34.65.65,0,0,1,.44-.07h7.08a.32.32,0,0,1,.37.24s0,.17-.1.23L40.53,49.78,51.27,67.4A.57.57,0,0,1,51.33,67.8Zm25.41-1.31a25.12,25.12,0,0,1-5.47,1.61,29.76,29.76,0,0,1-5.17.47,16.56,16.56,0,0,1-7.21-1.51,11.66,11.66,0,0,1-5.07-4.56A14.55,14.55,0,0,1,52,54.85a13.78,13.78,0,0,1,7.18-12.29,17.17,17.17,0,0,1,8.5-2,5,5,0,0,1,.7,0c.3,0,.64,0,1,.07V30.11c0-.23.1-.37.34-.37h6.81a.29.29,0,0,1,.33.24V62c0,.61,0,1.28.07,2s.1,1.37.14,1.94A.54.54,0,0,1,76.74,66.49Z"/></g></g></svg>